# xmcd
#
# Track frame offsets:
#	150
#	18288
#	38124
#	53067
#	69085
#	91645
#	112149
#	133618
#	147850
#	169759
#
# Disc length: 2503 seconds
#
# Revision: 0
# Processed by: cddbd v1.5.2PL0 Copyright (c) Steve Scherf et al.
# Submitted via: audiograbber 1.83.01
#
DISCID=7b09c50a
DTITLE=Dolly Parton, Linda Ronstadt, Emmylou Harris - The Complete Trio Collect
DTITLE=ion (Deluxe) CD2
DYEAR=2016
DGENRE=Country
TTITLE0=Lover's Return
TTITLE1=High Sierra
TTITLE2=Do I Ever Cross Your Mind
TTITLE3=After The Gold Rush
TTITLE4=The Blue Train
TTITLE5=I Feel The Blues Movin' In
TTITLE6=You'll Never Be The Sun
TTITLE7=He Rode All The Way To Texas
TTITLE8=Feels Like Home
TTITLE9=When We're Gone, Long Gone
EXTD=\n\n
EXTT0=
EXTT1=
EXTT2=
EXTT3=
EXTT4=
EXTT5=
EXTT6=
EXTT7=
EXTT8=
EXTT9=
PLAYORDER=
